<?xml version="1.0" encoding="UTF-8" standalone="no"?>
<svg
   xmlns:dc="http://purl.org/dc/elements/1.1/"
   xmlns:cc="http://creativecommons.org/ns#"
   xmlns:rdf="http://www.w3.org/1999/02/22-rdf-syntax-ns#"
   xmlns:svg="http://www.w3.org/2000/svg"
   xmlns="http://www.w3.org/2000/svg"
   xmlns:sodipodi="http://sodipodi.sourceforge.net/DTD/sodipodi-0.dtd"
   xmlns:inkscape="http://www.inkscape.org/namespaces/inkscape"
   width="576"
   height="480"
   viewBox="-1 -1 36 30"
   version="1.1"
   id="svg877"
   sodipodi:docname="5hy.proto.svg"
   inkscape:version="0.92.2 2405546, 2018-03-11">
  <metadata
     id="metadata883">
    <rdf:RDF>
      <cc:Work
         rdf:about="">
        <dc:format>image/svg+xml</dc:format>
        <dc:type
           rdf:resource="http://purl.org/dc/dcmitype/StillImage" />
        <dc:title></dc:title>
      </cc:Work>
    </rdf:RDF>
  </metadata>
  <defs
     id="defs881" />
  <sodipodi:namedview
     pagecolor="#ffffff"
     bordercolor="#666666"
     borderopacity="1"
     objecttolerance="10"
     gridtolerance="10"
     guidetolerance="10"
     inkscape:pageopacity="0"
     inkscape:pageshadow="2"
     inkscape:window-width="1896"
     inkscape:window-height="1036"
     id="namedview879"
     showgrid="false"
     inkscape:zoom="0.23450534"
     inkscape:cx="-233.71853"
     inkscape:cy="303.94264"
     inkscape:window-x="10"
     inkscape:window-y="30"
     inkscape:window-maximized="0"
     inkscape:current-layer="svg877" />
  <polygon
     style="fill:#ca0000;fill-rule:evenodd;stroke:#ffffff;stroke-width:0.25;stroke-linecap:butt;stroke-linejoin:miter;stroke-opacity:1;fill-opacity:1"
     points="2,0 8,0 9,1 8,2 2,2 1,1 "
     id="a"
     transform="translate(0,1)" />
  <polygon
     style="fill:#dddddd;fill-rule:evenodd;stroke:#ffffff;stroke-width:0.25;stroke-linecap:butt;stroke-linejoin:miter;stroke-opacity:1"
     points="10,2 10,8 9,9 8,8 8,2 9,1 "
     id="b"
     transform="translate(0,1)" />
  <polygon
     style="fill:#ca0000;fill-rule:evenodd;stroke:#ffffff;stroke-width:0.25;stroke-linecap:butt;stroke-linejoin:miter;stroke-opacity:1;fill-opacity:1"
     points="10,10 10,16 9,17 8,16 8,10 9,9 "
     id="c"
     transform="translate(0,1)" />
  <polygon
     style="fill:#ca0000;fill-rule:evenodd;stroke:#ffffff;stroke-width:0.25;stroke-linecap:butt;stroke-linejoin:miter;stroke-opacity:1;fill-opacity:1"
     points="8,18 2,18 1,17 2,16 8,16 9,17 "
     id="d"
     transform="translate(0,1)" />
  <polygon
     style="fill:#dddddd;fill-rule:evenodd;stroke:#ffffff;stroke-width:0.25;stroke-linecap:butt;stroke-linejoin:miter;stroke-opacity:1"
     points="0,16 0,10 1,9 2,10 2,16 1,17 "
     id="e"
     transform="translate(0,1)" />
  <polygon
     style="fill:#ca0000;fill-rule:evenodd;stroke:#ffffff;stroke-width:0.25;stroke-linecap:butt;stroke-linejoin:miter;stroke-opacity:1;fill-opacity:1"
     points="0,8 0,2 1,1 2,2 2,8 1,9 "
     id="f"
     transform="translate(0,1)" />
  <polygon
     style="fill:#ca0000;fill-rule:evenodd;stroke:#ffffff;stroke-width:0.25;stroke-linecap:butt;stroke-linejoin:miter;stroke-opacity:1;fill-opacity:1"
     points="2,8 8,8 9,9 8,10 2,10 1,9 "
     id="g"
     transform="translate(0,1)" />
  <polygon
     style="fill:#dddddd;fill-rule:evenodd;stroke:#ffffff;stroke-width:0.25;stroke-linecap:butt;stroke-linejoin:miter;stroke-opacity:1"
     points="9,1 8,2 2,2 1,1 2,0 8,0 "
     id="a-6"
     transform="translate(12.0625,1)" />
  <polygon
     style="fill:#dddddd;fill-rule:evenodd;stroke:#ffffff;stroke-width:0.25;stroke-linecap:butt;stroke-linejoin:miter;stroke-opacity:1"
     points="9,9 8,8 8,2 9,1 10,2 10,8 "
     id="b-7"
     transform="translate(12.0625,1)" />
  <polygon
     style="fill:#ca0000;fill-rule:evenodd;stroke:#ffffff;stroke-width:0.25;stroke-linecap:butt;stroke-linejoin:miter;stroke-opacity:1;fill-opacity:1"
     points="9,17 8,16 8,10 9,9 10,10 10,16 "
     id="c-5"
     transform="translate(12.0625,1)" />
  <polygon
     style="fill:#dddddd;fill-rule:evenodd;stroke:#ffffff;stroke-width:0.25;stroke-linecap:butt;stroke-linejoin:miter;stroke-opacity:1"
     points="1,17 2,16 8,16 9,17 8,18 2,18 "
     id="d-3"
     transform="translate(12.0625,1)" />
  <polygon
     style="fill:#ca0000;fill-rule:evenodd;stroke:#ffffff;stroke-width:0.25;stroke-linecap:butt;stroke-linejoin:miter;stroke-opacity:1;fill-opacity:1"
     points="1,9 2,10 2,16 1,17 0,16 0,10 "
     id="e-5"
     transform="translate(12.0625,1)" />
  <polygon
     style="fill:#ca0000;fill-rule:evenodd;stroke:#ffffff;stroke-width:0.25;stroke-linecap:butt;stroke-linejoin:miter;stroke-opacity:1;fill-opacity:1"
     points="1,1 2,2 2,8 1,9 0,8 0,2 "
     id="f-6"
     transform="translate(12.0625,1)" />
  <polygon
     style="fill:#ca0000;fill-rule:evenodd;stroke:#ffffff;stroke-width:0.25;stroke-linecap:butt;stroke-linejoin:miter;stroke-opacity:1;fill-opacity:1"
     points="9,9 8,10 2,10 1,9 2,8 8,8 "
     id="g-2"
     transform="translate(12.0625,1)" />
  <polygon
     style="fill:#dddddd;fill-rule:evenodd;stroke:#ffffff;stroke-width:0.25;stroke-linecap:butt;stroke-linejoin:miter;stroke-opacity:1"
     points="1,1 2,0 8,0 9,1 8,2 2,2 "
     id="a-1"
     transform="translate(24.125,9)" />
  <polygon
     style="fill:#ca0000;fill-rule:evenodd;stroke:#ffffff;stroke-width:0.25;stroke-linecap:butt;stroke-linejoin:miter;stroke-opacity:1;fill-opacity:1"
     points="9,1 10,2 10,8 9,9 8,8 8,2 "
     id="b-2"
     transform="translate(24.125,9)" />
  <polygon
     style="fill:#ca0000;fill-rule:evenodd;stroke:#ffffff;stroke-width:0.25;stroke-linecap:butt;stroke-linejoin:miter;stroke-opacity:1;fill-opacity:1"
     points="9,9 10,10 10,16 9,17 8,16 8,10 "
     id="c-7"
     transform="translate(24.125,9)" />
  <polygon
     style="fill:#dddddd;fill-rule:evenodd;stroke:#ffffff;stroke-width:0.25;stroke-linecap:butt;stroke-linejoin:miter;stroke-opacity:1"
     points="9,17 8,18 2,18 1,17 2,16 8,16 "
     id="d-0"
     transform="translate(24.125,9)" />
  <polygon
     style="fill:#dddddd;fill-rule:evenodd;stroke:#ffffff;stroke-width:0.25;stroke-linecap:butt;stroke-linejoin:miter;stroke-opacity:1"
     points="1,17 0,16 0,10 1,9 2,10 2,16 "
     id="e-9"
     transform="translate(24.125,9)" />
  <polygon
     style="fill:#ca0000;fill-rule:evenodd;stroke:#ffffff;stroke-width:0.25;stroke-linecap:butt;stroke-linejoin:miter;stroke-opacity:1;fill-opacity:1"
     points="1,9 0,8 0,2 1,1 2,2 2,8 "
     id="f-3"
     transform="translate(24.125,9)" />
  <polygon
     style="fill:#ca0000;fill-rule:evenodd;stroke:#ffffff;stroke-width:0.25;stroke-linecap:butt;stroke-linejoin:miter;stroke-opacity:1;fill-opacity:1"
     points="1,9 2,8 8,8 9,9 8,10 2,10 "
     id="g-6"
     transform="translate(24.125,9)" />
</svg>
