<?xml version="1.0" encoding="UTF-8" standalone="no"?>
<svg
   xmlns:dc="http://purl.org/dc/elements/1.1/"
   xmlns:cc="http://creativecommons.org/ns#"
   xmlns:rdf="http://www.w3.org/1999/02/22-rdf-syntax-ns#"
   xmlns:svg="http://www.w3.org/2000/svg"
   xmlns="http://www.w3.org/2000/svg"
   xmlns:sodipodi="http://sodipodi.sourceforge.net/DTD/sodipodi-0.dtd"
   xmlns:inkscape="http://www.inkscape.org/namespaces/inkscape"
   inkscape:version="1.0 (4035a4fb49, 2020-05-01)"
   sodipodi:docname="ACL.svg"
   id="svg8"
   version="1.1"
   viewBox="0 0 116.07105 47.654907"
   height="47.654907mm"
   width="116.07104mm">
  <defs
     id="defs2">
    <inkscape:path-effect
       lpeversion="0"
       miter_limit="100"
       jointype="extrapolated"
       smoothing="0.6"
       end_offset="0.99999"
       attach_start="1e-07"
       stroke_width="20"
       is_visible="true"
       id="path-effect78"
       effect="taper_stroke" />
  </defs>
  <sodipodi:namedview
     inkscape:document-rotation="0"
     inkscape:window-maximized="0"
     inkscape:window-y="118"
     inkscape:window-x="1930"
     inkscape:window-height="860"
     inkscape:window-width="1416"
     showgrid="true"
     inkscape:current-layer="layer1"
     inkscape:document-units="mm"
     inkscape:cy="204.88256"
     inkscape:cx="223.77235"
     inkscape:zoom="1"
     inkscape:pageshadow="2"
     inkscape:pageopacity="0.0"
     borderopacity="1.0"
     bordercolor="#666666"
     pagecolor="#ffffff"
     id="base">
    <inkscape:grid
       originy="-80.354171"
       originx="-55.908122"
       id="grid64"
       type="xygrid" />
  </sodipodi:namedview>
  <metadata
     id="metadata5">
    <rdf:RDF>
      <cc:Work
         rdf:about="">
        <dc:format>image/svg+xml</dc:format>
        <dc:type
           rdf:resource="http://purl.org/dc/dcmitype/StillImage" />
        <dc:title />
      </cc:Work>
    </rdf:RDF>
  </metadata>
  <g
     transform="translate(-55.908121,-167.35417)"
     id="layer1"
     inkscape:groupmode="layer"
     inkscape:label="Layer 1">
    <path
       inkscape:original-d="m 559.99999,393.70081 c 0,-44.18278 -35.81722,-80 -80,-80 -44.18278,0 -80,35.81722 -80,80 0,44.18277 35.81722,79.99998 80,79.99998 13.90706,0 27.81412,-4.83516 40.04011,-12.8244"
       inkscape:path-effect="#path-effect78"
       transform="matrix(0.26458333,0,0,0.26458333,0,87)"
       id="path74"
       d="m 569.99999,393.7008 c -10e-6,-49.75607 -40.24394,-89.99999 -90,-89.99999 -49.75607,0 -90,40.24393 -90,90 0,49.75606 40.24393,89.99998 90,89.99998 1.6e-4,0 3.2e-4,0 4.9e-4,0 15.11838,-0.11872 26.00839,-7.03889 31.94617,-12.54436 6.12435,-5.67845 8.09345,-10.28004 8.09345,-10.28004 0,0 -4.96326,0.46933 -12.38601,1.21401 -6.83777,0.686 -17.77158,1.71888 -27.65375,1.61039 -1.2e-4,0 -2.3e-4,0 -3.5e-4,0 -38.60949,0 -70,-31.3905 -70,-69.99998 0,-38.60949 31.39051,-70 70,-70 38.60949,0 69.99999,31.3905 70,69.99999 z"
       style="fill:#000000;fill-rule:nonzero;stroke:none;stroke-width:20;stroke-miterlimit:4;stroke-dasharray:none;stroke-opacity:1" />
    <path
       transform="matrix(0.26458333,0,0,0.26458333,0,87)"
       id="path66"
       d="m 559.99999,393.70081 c 0,0 0,0 0,0"
       style="fill:none;stroke:#000000;stroke-width:18.8976;stroke-miterlimit:4;stroke-dasharray:none;stroke-opacity:1" />
    <path
       sodipodi:nodetypes="cccc"
       inkscape:connector-curvature="0"
       transform="matrix(0.26458333,0,0,0.26458333,0,87)"
       id="path926"
       d="m 479.99999,313.70082 c -95.03732,0 -176.94982,66.88032 -195.9586,159.99723 -18.98478,0.0633 -37.96885,-0.0447 -56.95321,-0.14555 46.38222,-97.6344 144.82024,-159.85168 252.91181,-159.85168"
       style="fill:none;stroke:#000000;stroke-width:20;stroke-linecap:butt;stroke-miterlimit:4;stroke-dasharray:none;stroke-opacity:1" />
    <path
       transform="matrix(0.26458333,0,0,0.26458333,0,87)"
       inkscape:connector-curvature="0"
       id="path980"
       d="m 243.40885,463.13951 c 0.69554,-1.81255 7.67599,-13.24856 12.3066,-20.16181 16.50978,-24.64817 37.6963,-47.04107 61.54685,-65.05143 3.30512,-2.4958 6.11219,-4.43493 6.23795,-4.30918 0.12575,0.12575 -1.31771,2.02105 -3.20768,4.21176 -19.20645,22.26263 -34.28394,50.72615 -42.32344,79.89885 l -1.6535,6 -16.61683,0.13181 c -15.47909,0.12279 -16.59444,0.0735 -16.28995,-0.72 z"
       style="fill:#000000;fill-opacity:1;stroke:#000000;stroke-width:9.44882;stroke-linecap:butt;stroke-miterlimit:4;stroke-dasharray:none;stroke-opacity:1" />
    <path
       inkscape:connector-curvature="0"
       id="path985"
       d="M 105.83333,191.16667 H 84.666666"
       style="fill:none;stroke:#000000;stroke-width:5.29167;stroke-linecap:butt;stroke-linejoin:miter;stroke-miterlimit:4;stroke-dasharray:none;stroke-opacity:1" />
    <path
       sodipodi:nodetypes="cccccccc"
       inkscape:connector-curvature="0"
       transform="matrix(0.26458333,0,0,0.26458333,0,87)"
       id="path1010"
       d="m 559.99997,393.70072 v 0 0 c 0,27.28755 -4.65358,54.37527 -13.76061,80.09828 l 93.76063,-0.0983 v 3e-5 c 2e-5,-4.99994 2e-5,-9.99994 2e-5,-14.99994 -5,5 -15,15 -40,14.99996"
       style="fill:none;stroke:#000000;stroke-width:20;stroke-linecap:butt;stroke-linejoin:miter;stroke-miterlimit:4;stroke-dasharray:none;stroke-opacity:1" />
  </g>
</svg>
